<svg width="14" height="14" viewBox="0 0 14 14" fill="none" xmlns="http://www.w3.org/2000/svg">
<path d="M13.44 0H0.56C0.25025 0 0 0.25025 0 0.56V13.44C0 13.7498 0.25025 14 0.56 14H13.44C13.7498 14 14 13.7498 14 13.44V0.56C14 0.25025 13.7498 0 13.44 0ZM10.36 7.42C10.36 7.497 10.297 7.56 10.22 7.56H7.56V10.22C7.56 10.297 7.497 10.36 7.42 10.36H6.58C6.503 10.36 6.44 10.297 6.44 10.22V7.56H3.78C3.703 7.56 3.64 7.497 3.64 7.42V6.58C3.64 6.503 3.703 6.44 3.78 6.44H6.44V3.78C6.44 3.703 6.503 3.64 6.58 3.64H7.42C7.497 3.64 7.56 3.703 7.56 3.78V6.44H10.22C10.297 6.44 10.36 6.503 10.36 6.58V7.42Z" fill="#E7E7E7"/>
</svg>
