<svg width="50" height="45" viewBox="0 0 50 45" fill="none" xmlns="http://www.w3.org/2000/svg">
<path d="M33.8334 14.55C34.9956 15.5948 35.9176 16.8356 36.5466 18.2013C37.1757 19.567 37.4994 21.031 37.4994 22.5094C37.4994 23.9878 37.1757 25.4518 36.5466 26.8175C35.9176 28.1832 34.9956 29.424 33.8334 30.4688M16.1667 30.45C15.0045 29.4052 14.0825 28.1645 13.4534 26.7987C12.8244 25.433 12.5006 23.9691 12.5006 22.4906C12.5006 21.0122 12.8244 19.5483 13.4534 18.1826C14.0825 16.8168 15.0045 15.5761 16.1667 14.5313M39.7292 9.24377C43.6348 12.7599 45.8289 17.5282 45.8289 22.5C45.8289 27.4719 43.6348 32.2401 39.7292 35.7563M10.2709 35.7563C6.36521 32.2401 4.17114 27.4719 4.17114 22.5C4.17114 17.5282 6.36521 12.7599 10.2709 9.24377M29.1667 22.5C29.1667 24.5711 27.3012 26.25 25 26.25C22.6988 26.25 20.8334 24.5711 20.8334 22.5C20.8334 20.429 22.6988 18.75 25 18.75C27.3012 18.75 29.1667 20.429 29.1667 22.5Z" stroke="white" stroke-width="4" stroke-linecap="round" stroke-linejoin="round"/>
</svg>
