<svg width="14" height="14" viewBox="0 0 14 14" fill="none" xmlns="http://www.w3.org/2000/svg">
<path d="M6.1985 0.29409C6.41511 0.10523 6.7019 0 7 0C7.2981 0 7.58489 0.10523 7.8015 0.29409L13.4528 5.22064C13.8028 5.52512 14 5.9501 14 6.39338V12.3861C14 12.8142 13.8156 13.2247 13.4874 13.5273C13.1592 13.83 12.7141 14 12.25 14H9.91667C9.68676 14 9.4591 13.9582 9.2467 13.877C9.03431 13.7959 8.84133 13.6769 8.67882 13.5269C8.5163 13.377 8.38742 13.1989 8.29954 13.003C8.21167 12.8071 8.16651 12.5971 8.16667 12.3851V9.69532C8.16667 9.55264 8.10521 9.41581 7.99581 9.31493C7.88642 9.21404 7.73804 9.15737 7.58333 9.15737H6.41667C6.26196 9.15737 6.11358 9.21404 6.00419 9.31493C5.89479 9.41581 5.83333 9.55264 5.83333 9.69532V12.3851C5.83333 12.8131 5.64896 13.2236 5.32077 13.5262C4.99258 13.8289 4.54746 13.9989 4.08333 13.9989H1.75C1.28587 13.9989 0.840752 13.8289 0.512563 13.5262C0.184375 13.2236 0 12.8131 0 12.3851V6.3923C0 5.94903 0.198333 5.52405 0.548333 5.21957L6.1985 0.291938V0.29409ZM7 1.07519L1.34867 6.00282C1.2913 6.05298 1.24558 6.11337 1.21429 6.18032C1.183 6.24728 1.1668 6.31939 1.16667 6.3923V12.3851C1.16667 12.5277 1.22812 12.6646 1.33752 12.7655C1.44692 12.8663 1.59529 12.923 1.75 12.923H4.08333C4.23804 12.923 4.38642 12.8663 4.49581 12.7655C4.60521 12.6646 4.66667 12.5277 4.66667 12.3851V9.69532C4.66667 9.2673 4.85104 8.85681 5.17923 8.55415C5.50742 8.2515 5.95254 8.08146 6.41667 8.08146H7.58333C8.04746 8.08146 8.49258 8.2515 8.82077 8.55415C9.14896 8.85681 9.33333 9.2673 9.33333 9.69532V12.3851C9.33333 12.5277 9.39479 12.6646 9.50419 12.7655C9.61358 12.8663 9.76196 12.923 9.91667 12.923H12.25C12.4047 12.923 12.5531 12.8663 12.6625 12.7655C12.7719 12.6646 12.8333 12.5277 12.8333 12.3851V6.3923C12.8334 6.31921 12.8172 6.24689 12.7859 6.17974C12.7546 6.11259 12.7088 6.05203 12.6513 6.00175L7 1.07519Z" fill="white"/>
</svg>
