<svg width="21" height="21" viewBox="0 0 21 21" fill="none" xmlns="http://www.w3.org/2000/svg">
<path d="M8.0938 19.25L7.7438 16.45C7.55422 16.3771 7.37557 16.2896 7.20786 16.1875C7.04015 16.0854 6.87609 15.976 6.71567 15.8594L4.11255 16.9531L1.7063 12.7969L3.95942 11.0906C3.94484 10.9885 3.93755 10.8901 3.93755 10.7953V10.2047C3.93755 10.1099 3.94484 10.0115 3.95942 9.90937L1.7063 8.20312L4.11255 4.04688L6.71567 5.14062C6.87609 5.02396 7.0438 4.91458 7.2188 4.8125C7.3938 4.71042 7.5688 4.62292 7.7438 4.55L8.0938 1.75H12.9063L13.2563 4.55C13.4459 4.62292 13.6245 4.71042 13.7922 4.8125C13.9599 4.91458 14.124 5.02396 14.2844 5.14062L16.8876 4.04688L19.2938 8.20312L17.0407 9.90937C17.0553 10.0115 17.0626 10.1099 17.0626 10.2047V10.7953C17.0626 10.8901 17.048 10.9885 17.0188 11.0906L19.2719 12.7969L16.8657 16.9531L14.2844 15.8594C14.124 15.976 13.9563 16.0854 13.7813 16.1875C13.6063 16.2896 13.4313 16.3771 13.2563 16.45L12.9063 19.25H8.0938ZM9.62505 17.5H11.3532L11.6594 15.1813C12.1115 15.0646 12.5308 14.8932 12.9172 14.6672C13.3037 14.4411 13.6573 14.1677 13.9782 13.8469L16.1438 14.7438L16.9969 13.2563L15.1157 11.8344C15.1886 11.6302 15.2396 11.4151 15.2688 11.1891C15.298 10.963 15.3125 10.7333 15.3125 10.5C15.3125 10.2667 15.298 10.037 15.2688 9.81094C15.2396 9.5849 15.1886 9.36979 15.1157 9.16563L16.9969 7.74375L16.1438 6.25625L13.9782 7.175C13.6573 6.83958 13.3037 6.55885 12.9172 6.33281C12.5308 6.10677 12.1115 5.93542 11.6594 5.81875L11.375 3.5H9.64692L9.34067 5.81875C8.88859 5.93542 8.46932 6.10677 8.08286 6.33281C7.6964 6.55885 7.34276 6.83229 7.02192 7.15313L4.8563 6.25625L4.00317 7.74375L5.88442 9.14375C5.81151 9.3625 5.76047 9.58125 5.7313 9.8C5.70213 10.0187 5.68755 10.2521 5.68755 10.5C5.68755 10.7333 5.70213 10.9594 5.7313 11.1781C5.76047 11.3969 5.81151 11.6156 5.88442 11.8344L4.00317 13.2563L4.8563 14.7438L7.02192 13.825C7.34276 14.1604 7.6964 14.4411 8.08286 14.6672C8.46932 14.8932 8.88859 15.0646 9.34067 15.1813L9.62505 17.5ZM10.5438 13.5625C11.3896 13.5625 12.1115 13.2635 12.7094 12.6656C13.3073 12.0677 13.6063 11.3458 13.6063 10.5C13.6063 9.65417 13.3073 8.93229 12.7094 8.33438C12.1115 7.73646 11.3896 7.4375 10.5438 7.4375C9.68338 7.4375 8.95786 7.73646 8.36724 8.33438C7.77661 8.93229 7.4813 9.65417 7.4813 10.5C7.4813 11.3458 7.77661 12.0677 8.36724 12.6656C8.95786 13.2635 9.68338 13.5625 10.5438 13.5625Z" fill="white"/>
</svg>
