<svg width="14" height="12" viewBox="0 0 14 12" fill="none" xmlns="http://www.w3.org/2000/svg">
<path d="M7.88533 0C4.56019 0 1.8552 2.60634 1.77441 5.85073V6.00073H0L2.68854 8.85L5.30227 6.00073H3.30345V5.85073C3.38349 3.4339 5.40401 1.50073 7.88533 1.50073C10.4183 1.50073 12.4717 3.51585 12.4717 6.00073C12.4717 8.48561 10.4183 10.5007 7.88533 10.5007C6.90872 10.5013 5.95769 10.1953 5.17211 9.6278L4.12033 10.7283C5.19381 11.5536 6.51997 12.0015 7.88533 12C11.2628 12 14 9.31463 14 6.00073C14 2.68683 11.2628 0 7.88533 0ZM7.13727 2.34219V6.00073C7.13812 6.19462 7.21684 6.38041 7.35645 6.51805L9.75025 8.85951C9.96196 8.72561 10.1617 8.57488 10.339 8.4L8.6334 6.73244V2.34219H7.13727Z" fill="#F8F8F8"/>
</svg>
