<svg width="118" height="22" viewBox="0 0 118 22" fill="none" xmlns="http://www.w3.org/2000/svg">
<path d="M33.7764 9.48969H37V12.6038H33.7764V9.48969Z" fill="#F8F8F8"/>
<path d="M28.1724 9.44568H31.396V12.5598H28.1724V9.44568Z" fill="#F8F8F8"/>
<path d="M18.8884 9.44731L17.8756 12.8621L12.0604 0L9.04802 9.51206H0V12.6262H11.3251L12.5738 8.69343L18.4845 21.776L21.1979 12.5599H25.7812V9.44577L18.8884 9.44731Z" fill="#F8F8F8"/>
<path d="M52.688 16.126C51.764 16.126 50.936 15.976 50.204 15.676C49.472 15.376 48.884 14.932 48.44 14.344C48.008 13.756 47.78 13.048 47.756 12.22H51.032C51.08 12.688 51.242 13.048 51.518 13.3C51.794 13.54 52.154 13.66 52.598 13.66C53.054 13.66 53.414 13.558 53.678 13.354C53.942 13.138 54.074 12.844 54.074 12.472C54.074 12.16 53.966 11.902 53.75 11.698C53.546 11.494 53.288 11.326 52.976 11.194C52.676 11.062 52.244 10.912 51.68 10.744C50.864 10.492 50.198 10.24 49.682 9.988C49.166 9.736 48.722 9.364 48.35 8.872C47.978 8.38 47.792 7.738 47.792 6.946C47.792 5.77 48.218 4.852 49.07 4.192C49.922 3.52 51.032 3.184 52.4 3.184C53.792 3.184 54.914 3.52 55.766 4.192C56.618 4.852 57.074 5.776 57.134 6.964H53.804C53.78 6.556 53.63 6.238 53.354 6.01C53.078 5.77 52.724 5.65 52.292 5.65C51.92 5.65 51.62 5.752 51.392 5.956C51.164 6.148 51.05 6.43 51.05 6.802C51.05 7.21 51.242 7.528 51.626 7.756C52.01 7.984 52.61 8.23 53.426 8.494C54.242 8.77 54.902 9.034 55.406 9.286C55.922 9.538 56.366 9.904 56.738 10.384C57.11 10.864 57.296 11.482 57.296 12.238C57.296 12.958 57.11 13.612 56.738 14.2C56.378 14.788 55.85 15.256 55.154 15.604C54.458 15.952 53.636 16.126 52.688 16.126ZM63.7622 16.144C62.7782 16.144 61.8902 15.934 61.0982 15.514C60.3182 15.094 59.7002 14.494 59.2442 13.714C58.8002 12.934 58.5782 12.022 58.5782 10.978C58.5782 9.946 58.8062 9.04 59.2622 8.26C59.7182 7.468 60.3422 6.862 61.1342 6.442C61.9262 6.022 62.8142 5.812 63.7982 5.812C64.7822 5.812 65.6702 6.022 66.4622 6.442C67.2542 6.862 67.8782 7.468 68.3342 8.26C68.7902 9.04 69.0182 9.946 69.0182 10.978C69.0182 12.01 68.7842 12.922 68.3162 13.714C67.8602 14.494 67.2302 15.094 66.4262 15.514C65.6342 15.934 64.7462 16.144 63.7622 16.144ZM63.7622 13.48C64.3502 13.48 64.8482 13.264 65.2562 12.832C65.6762 12.4 65.8862 11.782 65.8862 10.978C65.8862 10.174 65.6822 9.556 65.2742 9.124C64.8782 8.692 64.3862 8.476 63.7982 8.476C63.1982 8.476 62.7002 8.692 62.3042 9.124C61.9082 9.544 61.7102 10.162 61.7102 10.978C61.7102 11.782 61.9022 12.4 62.2862 12.832C62.6822 13.264 63.1742 13.48 63.7622 13.48ZM76.7712 5.848C77.9472 5.848 78.8832 6.232 79.5792 7C80.2872 7.756 80.6412 8.8 80.6412 10.132V16H77.5812V10.546C77.5812 9.874 77.4072 9.352 77.0592 8.98C76.7112 8.608 76.2432 8.422 75.6552 8.422C75.0672 8.422 74.5992 8.608 74.2512 8.98C73.9032 9.352 73.7292 9.874 73.7292 10.546V16H70.6512V5.956H73.7292V7.288C74.0412 6.844 74.4612 6.496 74.9892 6.244C75.5172 5.98 76.1112 5.848 76.7712 5.848ZM86.5961 5.812C87.3041 5.812 87.9221 5.956 88.4501 6.244C88.9901 6.532 89.4041 6.91 89.6921 7.378V5.956H92.7701V15.982C92.7701 16.906 92.5841 17.74 92.2121 18.484C91.8521 19.24 91.2941 19.84 90.5381 20.284C89.7941 20.728 88.8641 20.95 87.7481 20.95C86.2601 20.95 85.0541 20.596 84.1301 19.888C83.2061 19.192 82.6781 18.244 82.5461 17.044H85.5881C85.6841 17.428 85.9121 17.728 86.2721 17.944C86.6321 18.172 87.0761 18.286 87.6041 18.286C88.2401 18.286 88.7441 18.1 89.1161 17.728C89.5001 17.368 89.6921 16.786 89.6921 15.982V14.56C89.3921 15.028 88.9781 15.412 88.4501 15.712C87.9221 16 87.3041 16.144 86.5961 16.144C85.7681 16.144 85.0181 15.934 84.3461 15.514C83.6741 15.082 83.1401 14.476 82.7441 13.696C82.3601 12.904 82.1681 11.992 82.1681 10.96C82.1681 9.928 82.3601 9.022 82.7441 8.242C83.1401 7.462 83.6741 6.862 84.3461 6.442C85.0181 6.022 85.7681 5.812 86.5961 5.812ZM89.6921 10.978C89.6921 10.21 89.4761 9.604 89.0441 9.16C88.6241 8.716 88.1081 8.494 87.4961 8.494C86.8841 8.494 86.3621 8.716 85.9301 9.16C85.5101 9.592 85.3001 10.192 85.3001 10.96C85.3001 11.728 85.5101 12.34 85.9301 12.796C86.3621 13.24 86.8841 13.462 87.4961 13.462C88.1081 13.462 88.6241 13.24 89.0441 12.796C89.4761 12.352 89.6921 11.746 89.6921 10.978ZM100.037 8.512H98.3809V16H95.3029V8.512H94.1869V5.956H95.3029V5.668C95.3029 4.432 95.6569 3.496 96.3649 2.86C97.0729 2.212 98.1109 1.888 99.4789 1.888C99.7069 1.888 99.8749 1.894 99.9829 1.906V4.516C99.3949 4.48 98.9809 4.564 98.7409 4.768C98.5009 4.972 98.3809 5.338 98.3809 5.866V5.956H100.037V8.512ZM103.031 4.912C102.491 4.912 102.047 4.756 101.699 4.444C101.363 4.12 101.195 3.724 101.195 3.256C101.195 2.776 101.363 2.38 101.699 2.068C102.047 1.744 102.491 1.582 103.031 1.582C103.559 1.582 103.991 1.744 104.327 2.068C104.675 2.38 104.849 2.776 104.849 3.256C104.849 3.724 104.675 4.12 104.327 4.444C103.991 4.756 103.559 4.912 103.031 4.912ZM104.561 5.956V16H101.483V5.956H104.561ZM117.052 5.956L110.752 20.77H107.44L109.744 15.658L105.658 5.956H109.096L111.418 12.238L113.722 5.956H117.052Z" fill="white"/>
</svg>
