<svg width="14" height="13" viewBox="0 0 14 13" fill="none" xmlns="http://www.w3.org/2000/svg">
<path d="M13.5634 1.83452C12.977 0.595982 11.288 -0.417364 9.32337 0.172628C8.38456 0.451744 7.56546 1.05031 6.9999 1.87055C6.43434 1.05031 5.61525 0.451744 4.67644 0.172628C2.7074 -0.408357 1.02277 0.595982 0.436438 1.83452C-0.386183 3.56846 -0.0448828 5.51859 1.45159 7.63086C2.62426 9.28374 4.30013 10.9591 6.73299 12.9048C6.80987 12.9665 6.90459 13 7.00209 13C7.0996 13 7.19431 12.9665 7.27119 12.9048C9.69968 10.9636 11.3799 9.30175 12.5526 7.63086C14.0447 5.51859 14.386 3.56846 13.5634 1.83452Z" fill="#F21C2C"/>
</svg>
